<svg id="TheBody_Primary_Color" xmlns="http://www.w3.org/2000/svg" viewBox="0 0 740 180"><style>.st0{fill:#f25a2c}.st1{fill:#8c0a4b}</style><g id="TheBody_Primary_Color_1_"><g id="TheBody_Name_Color"><g id="Tagline"><path class="st0" d="M352.8 163.5h-3l10.3-21.8h3l-10.3 21.8zM222.2 161.4v-15h-4.9v-2.6h13.1v2.6h-4.9v15h-3.3zM249.2 161.4v-7.8h-6.8v7.8h-3.2v-17.6h3.2v7.2h6.8v-7.2h3.2v17.6h-3.2zM262.6 161.4v-17.6h11.2v2.6h-8v4.6h6.7v2.6h-6.7v5.2h8.2v2.6h-11.4zM305.2 161.4v-7.8h-6.8v7.8h-3.2v-17.6h3.2v7.2h6.8v-7.2h3.2v17.6h-3.2zM318.7 161.4v-17.6h3.2v17.6h-3.2zM336.5 161.4l-6.3-17.6h3.4l4.8 14.6h.1l4.8-14.6h3.4l-6.4 17.6h-3.8zM379.5 161.4l-1.6-4.7h-6.7l-1.6 4.7h-3.4l6.5-17.6h3.8l6.4 17.6h-3.4zm-4.9-14.6l-2.6 7.5h5.1l-2.5-7.5zM391.4 161.4v-17.6h3.2v17.6h-3.2zM404.9 161.4v-17.6h6c5.3 0 8 3.5 8 8.8 0 5.2-2.8 8.8-8 8.8h-6zm6-2.4c3.1 0 4.8-2.6 4.8-6.4 0-3.9-1.7-6.4-4.8-6.4h-2.8V159h2.8zM436.3 149c-.5-1.7-1.7-3-3.7-3-1.7 0-3 .9-3 2.3 0 4.1 10.2 1.3 10.2 8 0 3.2-2.6 5.4-6.6 5.4-4.1 0-6.2-2-7.1-5.2l3.2-.8c.5 2.1 2 3.4 4.1 3.4 2 0 3.2-1.1 3.2-2.5 0-4.2-10.2-1.5-10.2-7.9 0-3.1 2.5-5.2 6.3-5.2 4.2 0 6 2.6 6.6 5.1l-3 .4zM472 161.4l-3.7-7.1h-3.2v7.1h-3.2v-17.6h6.8c4.3 0 6 2.1 6 5 0 2.3-1 4-3.2 4.8l4.2 7.8H472zm-3.6-9.7c1.6 0 2.9-.7 2.9-2.7 0-1.8-1-2.5-2.9-2.5H465v5.2h3.4zM483.6 161.4v-17.6h11.2v2.6h-8v4.6h6.7v2.6h-6.7v5.2h8.2v2.6h-11.4zM513.1 149c-.5-1.7-1.7-3-3.7-3-1.7 0-3 .9-3 2.3 0 4.1 10.2 1.3 10.2 8 0 3.2-2.6 5.4-6.6 5.4-4.1 0-6.2-2-7.1-5.2l3.2-.8c.5 2.1 2 3.4 4.1 3.4 2 0 3.2-1.1 3.2-2.5 0-4.2-10.2-1.5-10.2-7.9 0-3.1 2.5-5.2 6.3-5.2 4.2 0 6 2.6 6.6 5.1l-3 .4zM524.4 152.6c0-5.2 3-9.1 7.8-9.1 4.7 0 7.8 3.9 7.8 9.1 0 5.2-3 9.1-7.8 9.1s-7.8-3.8-7.8-9.1zm12.4 0c0-3.3-1.5-6.5-4.6-6.5-3.1 0-4.6 3.2-4.6 6.5s1.5 6.5 4.6 6.5c3.1 0 4.6-3.2 4.6-6.5zM557.6 143.8h3.2v12c0 3.8-2.9 5.9-6.5 5.9-3.5 0-6.5-2.1-6.5-5.9v-12h3.2v12c0 2 1.3 3.3 3.3 3.3 2 0 3.3-1.3 3.3-3.3v-12zM581 161.4l-3.7-7.1h-3.2v7.1h-3.2v-17.6h6.8c4.3 0 6 2.1 6 5 0 2.3-1 4-3.2 4.8l4.2 7.8H581zm-3.6-9.7c1.6 0 2.9-.7 2.9-2.7 0-1.8-1-2.5-2.9-2.5H574v5.2h3.4zM606 155.7c-.8 3.7-3.3 6.1-7.1 6.1-4.6 0-7.6-3.8-7.6-9 0-5.3 3-9.2 7.7-9.2 3.6 0 6 2.1 6.9 5.8l-3.1.6c-.5-2.2-1.8-3.7-3.9-3.7-3 0-4.4 3.2-4.4 6.5s1.4 6.4 4.4 6.4c2.3 0 3.5-1.6 4.1-3.9l3 .4zM615 161.4v-17.6h11.2v2.6h-8v4.6h6.7v2.6h-6.7v5.2h8.2v2.6H615z"/></g><g id="Name"><path class="st1" d="M217.5 117.5v-73h-24.6V23.9H268v20.7h-24.7v73h-25.8zM316.5 117.5V72c0-3.4-1.1-5.7-4.1-5.7-2.7 0-5 1.8-7.7 4.3l-5.9 5.8v41.1h-23.2V23.9l23.2-7.4v40.4l2-2c5.4-5.3 12.3-7.8 19.6-7.8 13.1 0 19.5 8.4 19.5 23v47.6h-23.4zM371.9 89.5c.7 7.2 4.7 11.9 11.2 11.9 5.5 0 9.1-3.1 10.7-7.7l21.4 3.6c-4.6 14.7-16.4 21.8-32 21.8-19.7 0-34.3-11.8-34.3-35.8 0-23 14.6-36.4 34.3-36.4 19.3 0 33.1 12.8 33.1 35.7 0 1.8 0 5.3-.3 6.9h-44.1zm21.8-14.1c-.7-7.2-4.6-10.8-10.8-10.8-6.1 0-10 3.8-10.9 10.8h21.7zM427.7 117.5V23.9h37.8c20.4 0 31.1 10.5 31.1 24.2 0 8.7-4.9 15-11.6 18.4v.3c12.2 3.8 17.3 13 17.3 22.8 0 15.4-12.3 28-36.4 28h-38.2zm35.5-57.6c5.8 0 8.5-3.4 8.5-8.2 0-5-2.8-7.7-9.2-7.7H453v15.9h10.2zm2.9 37.6c6.6 0 10.7-3.1 10.7-9.9 0-6.1-3.8-9.3-10.9-9.3H453v19.2h13.1zM507.9 82.9c0-23.8 15.3-36 35.1-36 20 0 35.3 12.2 35.3 36 0 23.5-15.3 36.2-35.3 36.2-19.8 0-35.1-12-35.1-36.2zm46.9 0c0-11.5-4.3-16.9-11.8-16.9-7.3 0-11.6 5.4-11.6 16.9 0 10 3.2 17.2 11.6 17.2s11.8-7.2 11.8-17.2zM631.8 117.5l-.1-8.9h-.3c-2.8 5.7-9.2 10.5-18.9 10.5-15.1 0-27.4-12.2-27.4-34.9 0-22.4 12.2-37.3 29.2-37.3 7.8 0 13.8 3.2 16.9 8.4V23.9l23.2-7.4v101.1h-22.6zm.2-34.6c0-11.8-4.5-17-11.6-17-7 0-11.6 5.1-11.6 17.2 0 11.1 3.9 17.2 11.6 17.2 8-.1 11.6-7 11.6-17.4zM654.4 140.8c17.7 0 26.6-13.2 26.6-24.6 0-1.9-.4-3.9-1.1-6.1l-21.1-61.5H683l11.8 42.7h.3l10.5-42.7h24.3l-23.4 67.8c-7.7 22.6-21.8 45.3-52.1 45.3v-20.9z"/></g></g><g id="The_Haven_Color_1_"><g id="Right_1_"><path class="st1" d="M71.3 48l35-.2c3.9 0 7.6 2.1 9.6 5.5l21 36 21.6-37.8c-4-6.6-8.1-12-13.5-17.4-7.2-7.2-15.2-11.4-26.3-11.4-18.8-.1-36.1 9-47.4 25.3z"/><path d="M157.7 129c14.2-24.8 13.5-54.1.7-77.5l-21.6 37.8-23.8 41.8c-12.4 21.7-35 32.3-58 30.3 37.2 17.6 82.1 3.9 102.7-32.4z" fill="#249de0"/></g><g id="Left_1_"><path class="st1" d="M107 132l-35 .2c-3.9 0-7.6-2.1-9.6-5.5l-21-36-21.6 37.8c4 6.6 8.1 12 13.5 17.4 7.2 7.2 15.2 11.4 26.3 11.4 18.8.1 36.2-9 47.4-25.3z"/><path d="M20.6 51c-14.2 24.8-13.5 54.1-.7 77.5l21.6-37.8 23.8-41.8c12.4-21.7 35-32.3 58-30.3C86.2 1 41.3 14.7 20.6 51z" fill="#f15a2c"/></g></g></g></svg>